<svg width="191" height="200" viewBox="0 0 191 200" fill="none" xmlns="http://www.w3.org/2000/svg">
<rect y="134" width="32" height="25" rx="8" fill="#1E4841"/>
<path d="M9.195 150.13C8.74833 150.13 8.34 150.02 7.97 149.8C7.6 149.577 7.30333 149.28 7.08 148.91C6.86 148.537 6.75 148.125 6.75 147.675C6.75 147.435 6.77833 147.218 6.835 147.025C6.89167 146.832 6.97833 146.628 7.095 146.415L9.065 143H10.275L8.91 145.36C9.18667 145.307 9.45667 145.305 9.72 145.355C9.98667 145.402 10.2367 145.493 10.47 145.63C10.7033 145.763 10.9083 145.933 11.085 146.14C11.265 146.343 11.405 146.575 11.505 146.835C11.605 147.095 11.655 147.375 11.655 147.675C11.655 148.012 11.59 148.328 11.46 148.625C11.3333 148.922 11.1567 149.183 10.93 149.41C10.7067 149.633 10.445 149.81 10.145 149.94C9.84833 150.067 9.53167 150.13 9.195 150.13ZM9.195 149.09C9.46833 149.09 9.71167 149.023 9.925 148.89C10.1383 148.757 10.3067 148.582 10.43 148.365C10.5533 148.148 10.615 147.918 10.615 147.675C10.615 147.418 10.5517 147.183 10.425 146.97C10.3017 146.757 10.1333 146.587 9.92 146.46C9.70667 146.33 9.46833 146.265 9.205 146.265C8.93167 146.265 8.68833 146.332 8.475 146.465C8.26167 146.598 8.09333 146.772 7.97 146.985C7.85 147.198 7.79 147.428 7.79 147.675C7.79 147.945 7.855 148.187 7.985 148.4C8.11833 148.613 8.29167 148.782 8.505 148.905C8.71833 149.028 8.94833 149.09 9.195 149.09ZM14.974 150.13C14.5607 150.13 14.1873 150.037 13.854 149.85C13.524 149.66 13.239 149.398 12.999 149.065C12.759 148.732 12.5757 148.347 12.449 147.91C12.3223 147.47 12.259 147 12.259 146.5C12.259 146 12.3223 145.53 12.449 145.09C12.5757 144.65 12.759 144.265 12.999 143.935C13.239 143.602 13.524 143.342 13.854 143.155C14.1873 142.965 14.5607 142.87 14.974 142.87C15.3807 142.87 15.7507 142.965 16.084 143.155C16.4173 143.342 16.7007 143.602 16.934 143.935C17.1707 144.265 17.3523 144.65 17.479 145.09C17.6057 145.53 17.669 146 17.669 146.5C17.669 147 17.6057 147.47 17.479 147.91C17.3523 148.347 17.1707 148.732 16.934 149.065C16.7007 149.398 16.4173 149.66 16.084 149.85C15.7507 150.037 15.3807 150.13 14.974 150.13ZM14.974 149.09C15.3573 149.09 15.6757 148.97 15.929 148.73C16.1857 148.487 16.3773 148.168 16.504 147.775C16.6307 147.382 16.694 146.957 16.694 146.5C16.694 146.02 16.6273 145.585 16.494 145.195C16.364 144.802 16.1707 144.49 15.914 144.26C15.6607 144.027 15.3473 143.91 14.974 143.91C14.6773 143.91 14.419 143.98 14.199 144.12C13.9823 144.26 13.8023 144.452 13.659 144.695C13.519 144.938 13.4123 145.215 13.339 145.525C13.269 145.835 13.234 146.16 13.234 146.5C13.234 146.957 13.299 147.382 13.429 147.775C13.559 148.168 13.7523 148.487 14.009 148.73C14.269 148.97 14.5907 149.09 14.974 149.09ZM18.9148 150L22.9548 143H24.1548L20.1148 150H18.9148ZM19.7598 145.935C19.5065 145.935 19.2732 145.873 19.0598 145.75C18.8498 145.623 18.6815 145.455 18.5548 145.245C18.4282 145.032 18.3648 144.797 18.3648 144.54C18.3648 144.273 18.4282 144.035 18.5548 143.825C18.6848 143.615 18.8548 143.45 19.0648 143.33C19.2782 143.207 19.5098 143.145 19.7598 143.145C20.0165 143.145 20.2498 143.208 20.4598 143.335C20.6698 143.458 20.8382 143.625 20.9648 143.835C21.0915 144.045 21.1548 144.28 21.1548 144.54C21.1548 144.803 21.0898 145.04 20.9598 145.25C20.8332 145.46 20.6632 145.627 20.4498 145.75C20.2398 145.873 20.0098 145.935 19.7598 145.935ZM19.7598 145.2C19.9465 145.2 20.1032 145.137 20.2298 145.01C20.3565 144.88 20.4198 144.723 20.4198 144.54C20.4198 144.353 20.3565 144.197 20.2298 144.07C20.1032 143.94 19.9465 143.875 19.7598 143.875C19.5765 143.875 19.4198 143.94 19.2898 144.07C19.1632 144.197 19.0998 144.353 19.0998 144.54C19.0998 144.723 19.1632 144.88 19.2898 145.01C19.4198 145.137 19.5765 145.2 19.7598 145.2ZM23.3198 149.865C23.0598 149.865 22.8232 149.8 22.6098 149.67C22.3998 149.537 22.2315 149.365 22.1048 149.155C21.9815 148.942 21.9198 148.712 21.9198 148.465C21.9198 148.205 21.9848 147.97 22.1148 147.76C22.2448 147.547 22.4148 147.378 22.6248 147.255C22.8382 147.128 23.0698 147.065 23.3198 147.065C23.5832 147.065 23.8198 147.13 24.0298 147.26C24.2398 147.39 24.4065 147.562 24.5298 147.775C24.6532 147.988 24.7148 148.218 24.7148 148.465C24.7148 148.722 24.6515 148.957 24.5248 149.17C24.4015 149.38 24.2332 149.548 24.0198 149.675C23.8098 149.802 23.5765 149.865 23.3198 149.865ZM23.3198 149.13C23.4998 149.13 23.6548 149.065 23.7848 148.935C23.9148 148.805 23.9798 148.648 23.9798 148.465C23.9798 148.282 23.9148 148.125 23.7848 147.995C23.6548 147.865 23.4998 147.8 23.3198 147.8C23.1365 147.8 22.9782 147.865 22.8448 147.995C22.7148 148.125 22.6498 148.282 22.6498 148.465C22.6498 148.648 22.7148 148.805 22.8448 148.935C22.9782 149.065 23.1365 149.13 23.3198 149.13Z" fill="#ECF4E9"/>
<path d="M44.72 150.5V142.1H47.492C47.944 142.1 48.35 142.21 48.71 142.43C49.074 142.65 49.362 142.948 49.574 143.324C49.79 143.696 49.898 144.112 49.898 144.572C49.898 145.04 49.788 145.462 49.568 145.838C49.352 146.21 49.06 146.506 48.692 146.726C48.328 146.942 47.928 147.05 47.492 147.05H45.728V150.5H44.72ZM45.728 146.042H47.402C47.674 146.042 47.922 145.976 48.146 145.844C48.374 145.708 48.554 145.526 48.686 145.298C48.822 145.066 48.89 144.806 48.89 144.518C48.89 144.226 48.822 143.966 48.686 143.738C48.554 143.506 48.374 143.324 48.146 143.192C47.922 143.056 47.674 142.988 47.402 142.988H45.728V146.042ZM53.2311 150.656C52.6791 150.656 52.1751 150.514 51.7191 150.23C51.2671 149.946 50.9051 149.566 50.6331 149.09C50.3651 148.61 50.2311 148.08 50.2311 147.5C50.2311 147.06 50.3091 146.65 50.4651 146.27C50.6211 145.886 50.8351 145.55 51.1071 145.262C51.3831 144.97 51.7031 144.742 52.0671 144.578C52.4311 144.414 52.8191 144.332 53.2311 144.332C53.7831 144.332 54.2851 144.474 54.7371 144.758C55.1931 145.042 55.5551 145.424 55.8231 145.904C56.0951 146.384 56.2311 146.916 56.2311 147.5C56.2311 147.936 56.1531 148.344 55.9971 148.724C55.8411 149.104 55.6251 149.44 55.3491 149.732C55.0771 150.02 54.7591 150.246 54.3951 150.41C54.0351 150.574 53.6471 150.656 53.2311 150.656ZM53.2311 149.648C53.6071 149.648 53.9451 149.55 54.2451 149.354C54.5491 149.154 54.7871 148.892 54.9591 148.568C55.1351 148.24 55.2231 147.884 55.2231 147.5C55.2231 147.108 55.1331 146.748 54.9531 146.42C54.7771 146.092 54.5391 145.83 54.2391 145.634C53.9391 145.438 53.6031 145.34 53.2311 145.34C52.8551 145.34 52.5171 145.44 52.2171 145.64C51.9171 145.836 51.6791 146.098 51.5031 146.426C51.3271 146.754 51.2391 147.112 51.2391 147.5C51.2391 147.9 51.3291 148.264 51.5091 148.592C51.6891 148.916 51.9311 149.174 52.2351 149.366C52.5391 149.554 52.8711 149.648 53.2311 149.648ZM59.0773 150.614C58.7533 150.602 58.4373 150.542 58.1293 150.434C57.8253 150.322 57.5573 150.172 57.3253 149.984C57.0973 149.792 56.9313 149.572 56.8273 149.324L57.6913 148.952C57.7513 149.088 57.8593 149.216 58.0153 149.336C58.1713 149.456 58.3513 149.552 58.5553 149.624C58.7593 149.696 58.9653 149.732 59.1733 149.732C59.3933 149.732 59.5993 149.698 59.7913 149.63C59.9833 149.562 60.1393 149.462 60.2593 149.33C60.3833 149.194 60.4453 149.032 60.4453 148.844C60.4453 148.644 60.3773 148.488 60.2413 148.376C60.1093 148.26 59.9413 148.17 59.7373 148.106C59.5373 148.038 59.3333 147.974 59.1253 147.914C58.7133 147.81 58.3453 147.686 58.0213 147.542C57.6973 147.394 57.4413 147.208 57.2533 146.984C57.0693 146.756 56.9773 146.466 56.9773 146.114C56.9773 145.742 57.0793 145.42 57.2833 145.148C57.4913 144.876 57.7633 144.666 58.0993 144.518C58.4353 144.37 58.7953 144.296 59.1793 144.296C59.6633 144.296 60.1053 144.4 60.5053 144.608C60.9053 144.816 61.2033 145.098 61.3993 145.454L60.5893 145.928C60.5213 145.784 60.4173 145.658 60.2773 145.55C60.1373 145.438 59.9773 145.35 59.7973 145.286C59.6173 145.222 59.4333 145.188 59.2453 145.184C59.0133 145.176 58.7953 145.206 58.5913 145.274C58.3913 145.342 58.2293 145.446 58.1053 145.586C57.9853 145.722 57.9253 145.892 57.9253 146.096C57.9253 146.296 57.9893 146.448 58.1173 146.552C58.2493 146.656 58.4193 146.74 58.6273 146.804C58.8393 146.864 59.0693 146.934 59.3173 147.014C59.6813 147.13 60.0213 147.264 60.3373 147.416C60.6533 147.568 60.9073 147.758 61.0993 147.986C61.2953 148.214 61.3913 148.496 61.3873 148.832C61.3873 149.2 61.2773 149.522 61.0573 149.798C60.8373 150.07 60.5513 150.278 60.1993 150.422C59.8513 150.566 59.4773 150.63 59.0773 150.614ZM62.3333 144.5H63.3413V150.5H62.3333V144.5ZM62.8493 143.522C62.6893 143.522 62.5553 143.47 62.4473 143.366C62.3393 143.262 62.2853 143.132 62.2853 142.976C62.2853 142.82 62.3393 142.69 62.4473 142.586C62.5553 142.482 62.6873 142.43 62.8433 142.43C62.9993 142.43 63.1313 142.482 63.2393 142.586C63.3473 142.69 63.4013 142.82 63.4013 142.976C63.4013 143.132 63.3473 143.262 63.2393 143.366C63.1353 143.47 63.0053 143.522 62.8493 143.522ZM67.8905 145.508H66.5285L66.5225 150.5H65.5145L65.5205 145.508H64.4885V144.5H65.5205L65.5145 142.616H66.5225L66.5285 144.5H67.8905V145.508ZM68.9075 144.5H69.9155V150.5H68.9075V144.5ZM69.4235 143.522C69.2635 143.522 69.1295 143.47 69.0215 143.366C68.9135 143.262 68.8595 143.132 68.8595 142.976C68.8595 142.82 68.9135 142.69 69.0215 142.586C69.1295 142.482 69.2615 142.43 69.4175 142.43C69.5735 142.43 69.7055 142.482 69.8135 142.586C69.9215 142.69 69.9755 142.82 69.9755 142.976C69.9755 143.132 69.9215 143.262 69.8135 143.366C69.7095 143.47 69.5795 143.522 69.4235 143.522ZM74.3713 150.5H73.0813L70.8913 144.488H71.9653L73.7233 149.33L75.4813 144.488H76.5553L74.3713 150.5ZM79.9381 150.656C79.3861 150.656 78.8821 150.514 78.4261 150.23C77.9741 149.946 77.6121 149.566 77.3401 149.09C77.0721 148.61 76.9381 148.08 76.9381 147.5C76.9381 147.06 77.0161 146.65 77.1721 146.27C77.3281 145.886 77.5421 145.55 77.8141 145.262C78.0901 144.97 78.4101 144.742 78.7741 144.578C79.1381 144.414 79.5261 144.332 79.9381 144.332C80.3901 144.332 80.8041 144.424 81.1801 144.608C81.5601 144.788 81.8841 145.04 82.1521 145.364C82.4241 145.688 82.6261 146.064 82.7581 146.492C82.8941 146.92 82.9441 147.378 82.9081 147.866H78.0121C78.0601 148.206 78.1721 148.51 78.3481 148.778C78.5241 149.042 78.7481 149.252 79.0201 149.408C79.2961 149.564 79.6021 149.644 79.9381 149.648C80.2981 149.648 80.6241 149.556 80.9161 149.372C81.2081 149.184 81.4441 148.928 81.6241 148.604L82.6501 148.844C82.4101 149.376 82.0481 149.812 81.5641 150.152C81.0801 150.488 80.5381 150.656 79.9381 150.656ZM77.9821 147.074H81.8941C81.8621 146.738 81.7541 146.432 81.5701 146.156C81.3861 145.876 81.1521 145.652 80.8681 145.484C80.5841 145.316 80.2741 145.232 79.9381 145.232C79.6021 145.232 79.2941 145.314 79.0141 145.478C78.7341 145.642 78.5021 145.864 78.3181 146.144C78.1381 146.42 78.0261 146.73 77.9821 147.074Z" fill="#242E2C"/>
<g clip-path="url(#clip0_452_4463)">
<path d="M15.4276 36.5029C20.633 24.1384 29.7703 13.8354 41.4241 7.18965C53.078 0.543946 66.598 -2.07354 79.8901 -0.257389C93.1821 1.55877 105.504 7.70721 114.948 17.2356C124.392 26.764 130.431 39.1405 132.128 52.4483L114.326 54.7194C113.128 45.328 108.866 36.5937 102.201 29.8694C95.5368 23.1451 86.8408 18.8061 77.4605 17.5244C68.0801 16.2427 58.5388 18.0899 50.3146 22.7799C42.0903 27.4698 35.6421 34.7408 31.9685 43.4666L15.4276 36.5029Z" fill="#BBF49C" stroke="#FBFBFC" stroke-width="3.27434"/>
<path d="M129.063 39.6466C132.437 49.0909 133.43 59.2216 131.954 69.1413C130.478 79.061 126.578 88.4636 120.6 96.5161C114.622 104.569 106.75 111.023 97.6819 115.306C88.6138 119.59 78.6292 121.571 68.6126 121.074C58.5959 120.577 48.8564 117.618 40.2567 112.458C31.657 107.298 24.4626 100.097 19.3107 91.4922C14.1589 82.8877 11.2086 73.1454 10.7212 63.1283C10.2338 53.1111 12.2244 43.1284 16.5166 34.0644L32.7369 41.7454C29.7078 48.142 28.3031 55.1869 28.647 62.2561C28.991 69.3253 31.073 76.2005 34.7088 82.2729C38.3445 88.3452 43.4217 93.4272 49.4906 97.0686C55.5595 100.71 62.4328 102.799 69.5017 103.149C76.5705 103.5 83.6168 102.102 90.0162 99.0787C96.4157 96.0556 101.971 91.501 106.19 85.8183C110.408 80.1355 113.161 73.5 114.202 66.4995C115.244 59.4991 114.543 52.3497 112.162 45.6848L129.063 39.6466Z" fill="#1E4841" stroke="#FBFBFC" stroke-width="3.27434"/>
</g>
<rect x="108" y="134" width="32" height="25" rx="8" fill="#BBF49C"/>
<path d="M117.895 150V148.21H114.9V147.165L117.645 143H118.935V147.17H119.575V148.21H118.935V150H117.895ZM116.11 147.165L117.895 147.17L117.885 144.435L116.11 147.165ZM122.886 150.13C122.473 150.13 122.099 150.037 121.766 149.85C121.436 149.66 121.151 149.398 120.911 149.065C120.671 148.732 120.488 148.347 120.361 147.91C120.234 147.47 120.171 147 120.171 146.5C120.171 146 120.234 145.53 120.361 145.09C120.488 144.65 120.671 144.265 120.911 143.935C121.151 143.602 121.436 143.342 121.766 143.155C122.099 142.965 122.473 142.87 122.886 142.87C123.293 142.87 123.663 142.965 123.996 143.155C124.329 143.342 124.613 143.602 124.846 143.935C125.083 144.265 125.264 144.65 125.391 145.09C125.518 145.53 125.581 146 125.581 146.5C125.581 147 125.518 147.47 125.391 147.91C125.264 148.347 125.083 148.732 124.846 149.065C124.613 149.398 124.329 149.66 123.996 149.85C123.663 150.037 123.293 150.13 122.886 150.13ZM122.886 149.09C123.269 149.09 123.588 148.97 123.841 148.73C124.098 148.487 124.289 148.168 124.416 147.775C124.543 147.382 124.606 146.957 124.606 146.5C124.606 146.02 124.539 145.585 124.406 145.195C124.276 144.802 124.083 144.49 123.826 144.26C123.573 144.027 123.259 143.91 122.886 143.91C122.589 143.91 122.331 143.98 122.111 144.12C121.894 144.26 121.714 144.452 121.571 144.695C121.431 144.938 121.324 145.215 121.251 145.525C121.181 145.835 121.146 146.16 121.146 146.5C121.146 146.957 121.211 147.382 121.341 147.775C121.471 148.168 121.664 148.487 121.921 148.73C122.181 148.97 122.503 149.09 122.886 149.09ZM126.827 150L130.867 143H132.067L128.027 150H126.827ZM127.672 145.935C127.419 145.935 127.185 145.873 126.972 145.75C126.762 145.623 126.594 145.455 126.467 145.245C126.34 145.032 126.277 144.797 126.277 144.54C126.277 144.273 126.34 144.035 126.467 143.825C126.597 143.615 126.767 143.45 126.977 143.33C127.19 143.207 127.422 143.145 127.672 143.145C127.929 143.145 128.162 143.208 128.372 143.335C128.582 143.458 128.75 143.625 128.877 143.835C129.004 144.045 129.067 144.28 129.067 144.54C129.067 144.803 129.002 145.04 128.872 145.25C128.745 145.46 128.575 145.627 128.362 145.75C128.152 145.873 127.922 145.935 127.672 145.935ZM127.672 145.2C127.859 145.2 128.015 145.137 128.142 145.01C128.269 144.88 128.332 144.723 128.332 144.54C128.332 144.353 128.269 144.197 128.142 144.07C128.015 143.94 127.859 143.875 127.672 143.875C127.489 143.875 127.332 143.94 127.202 144.07C127.075 144.197 127.012 144.353 127.012 144.54C127.012 144.723 127.075 144.88 127.202 145.01C127.332 145.137 127.489 145.2 127.672 145.2ZM131.232 149.865C130.972 149.865 130.735 149.8 130.522 149.67C130.312 149.537 130.144 149.365 130.017 149.155C129.894 148.942 129.832 148.712 129.832 148.465C129.832 148.205 129.897 147.97 130.027 147.76C130.157 147.547 130.327 147.378 130.537 147.255C130.75 147.128 130.982 147.065 131.232 147.065C131.495 147.065 131.732 147.13 131.942 147.26C132.152 147.39 132.319 147.562 132.442 147.775C132.565 147.988 132.627 148.218 132.627 148.465C132.627 148.722 132.564 148.957 132.437 149.17C132.314 149.38 132.145 149.548 131.932 149.675C131.722 149.802 131.489 149.865 131.232 149.865ZM131.232 149.13C131.412 149.13 131.567 149.065 131.697 148.935C131.827 148.805 131.892 148.648 131.892 148.465C131.892 148.282 131.827 148.125 131.697 147.995C131.567 147.865 131.412 147.8 131.232 147.8C131.049 147.8 130.89 147.865 130.757 147.995C130.627 148.125 130.562 148.282 130.562 148.465C130.562 148.648 130.627 148.805 130.757 148.935C130.89 149.065 131.049 149.13 131.232 149.13Z" fill="black"/>
<path d="M152.72 150.5V142.1H153.812L158.006 148.676V142.1H159.014V150.5H157.928L153.728 143.924V150.5H152.72ZM163.036 150.656C162.484 150.656 161.98 150.514 161.524 150.23C161.072 149.946 160.71 149.566 160.438 149.09C160.17 148.61 160.036 148.08 160.036 147.5C160.036 147.06 160.114 146.65 160.27 146.27C160.426 145.886 160.64 145.55 160.912 145.262C161.188 144.97 161.508 144.742 161.872 144.578C162.236 144.414 162.624 144.332 163.036 144.332C163.488 144.332 163.902 144.424 164.278 144.608C164.658 144.788 164.982 145.04 165.25 145.364C165.522 145.688 165.724 146.064 165.856 146.492C165.992 146.92 166.042 147.378 166.006 147.866H161.11C161.158 148.206 161.27 148.51 161.446 148.778C161.622 149.042 161.846 149.252 162.118 149.408C162.394 149.564 162.7 149.644 163.036 149.648C163.396 149.648 163.722 149.556 164.014 149.372C164.306 149.184 164.542 148.928 164.722 148.604L165.748 148.844C165.508 149.376 165.146 149.812 164.662 150.152C164.178 150.488 163.636 150.656 163.036 150.656ZM161.08 147.074H164.992C164.96 146.738 164.852 146.432 164.668 146.156C164.484 145.876 164.25 145.652 163.966 145.484C163.682 145.316 163.372 145.232 163.036 145.232C162.7 145.232 162.392 145.314 162.112 145.478C161.832 145.642 161.6 145.864 161.416 146.144C161.236 146.42 161.124 146.73 161.08 147.074ZM166.695 148.22V144.5H167.703V147.998C167.703 148.302 167.777 148.578 167.925 148.826C168.073 149.074 168.271 149.272 168.519 149.42C168.771 149.564 169.047 149.636 169.347 149.636C169.651 149.636 169.925 149.564 170.169 149.42C170.417 149.272 170.615 149.074 170.763 148.826C170.911 148.578 170.985 148.302 170.985 147.998V144.5H171.993L171.999 150.5H170.991L170.985 149.738C170.773 150.018 170.505 150.242 170.181 150.41C169.857 150.574 169.507 150.656 169.131 150.656C168.683 150.656 168.273 150.548 167.901 150.332C167.533 150.112 167.239 149.818 167.019 149.45C166.803 149.082 166.695 148.672 166.695 148.22ZM176.312 145.508H174.95L174.944 150.5H173.936L173.942 145.508H172.91V144.5H173.942L173.936 142.616H174.944L174.95 144.5H176.312V145.508ZM177.388 150.5V144.5H178.396V145.25C178.608 144.97 178.876 144.748 179.2 144.584C179.524 144.416 179.876 144.332 180.256 144.332C180.488 144.332 180.712 144.362 180.928 144.422L180.52 145.43C180.356 145.378 180.196 145.352 180.04 145.352C179.74 145.352 179.464 145.426 179.212 145.574C178.964 145.718 178.766 145.914 178.618 146.162C178.47 146.41 178.396 146.686 178.396 146.99V150.5H177.388ZM186.185 144.5H187.193V150.5H186.185L186.143 149.486C185.955 149.834 185.695 150.116 185.363 150.332C185.035 150.548 184.643 150.656 184.187 150.656C183.747 150.656 183.335 150.574 182.951 150.41C182.567 150.242 182.227 150.012 181.931 149.72C181.639 149.424 181.411 149.084 181.247 148.7C181.083 148.316 181.001 147.902 181.001 147.458C181.001 147.03 181.081 146.626 181.241 146.246C181.401 145.866 181.623 145.534 181.907 145.25C182.195 144.962 182.527 144.738 182.903 144.578C183.279 144.414 183.683 144.332 184.115 144.332C184.587 144.332 185.001 144.444 185.357 144.668C185.713 144.888 186.001 145.174 186.221 145.526L186.185 144.5ZM184.169 149.678C184.565 149.678 184.907 149.582 185.195 149.39C185.487 149.194 185.711 148.93 185.867 148.598C186.027 148.266 186.107 147.9 186.107 147.5C186.107 147.092 186.027 146.724 185.867 146.396C185.707 146.064 185.481 145.802 185.189 145.61C184.901 145.414 184.561 145.316 184.169 145.316C183.773 145.316 183.413 145.414 183.089 145.61C182.765 145.806 182.507 146.07 182.315 146.402C182.127 146.73 182.033 147.096 182.033 147.5C182.033 147.904 182.131 148.272 182.327 148.604C182.523 148.932 182.783 149.194 183.107 149.39C183.431 149.582 183.785 149.678 184.169 149.678ZM188.462 150.5V141.5H189.47V150.5H188.462Z" fill="#242E2C"/>
<rect y="175" width="32" height="25" rx="8" fill="#9E9E9E"/>
<path d="M12.015 191.13C11.6017 191.13 11.2283 191.037 10.895 190.85C10.565 190.66 10.28 190.398 10.04 190.065C9.8 189.732 9.61667 189.347 9.49 188.91C9.36333 188.47 9.3 188 9.3 187.5C9.3 187 9.36333 186.53 9.49 186.09C9.61667 185.65 9.8 185.265 10.04 184.935C10.28 184.602 10.565 184.342 10.895 184.155C11.2283 183.965 11.6017 183.87 12.015 183.87C12.4217 183.87 12.7917 183.965 13.125 184.155C13.4583 184.342 13.7417 184.602 13.975 184.935C14.2117 185.265 14.3933 185.65 14.52 186.09C14.6467 186.53 14.71 187 14.71 187.5C14.71 188 14.6467 188.47 14.52 188.91C14.3933 189.347 14.2117 189.732 13.975 190.065C13.7417 190.398 13.4583 190.66 13.125 190.85C12.7917 191.037 12.4217 191.13 12.015 191.13ZM12.015 190.09C12.3983 190.09 12.7167 189.97 12.97 189.73C13.2267 189.487 13.4183 189.168 13.545 188.775C13.6717 188.382 13.735 187.957 13.735 187.5C13.735 187.02 13.6683 186.585 13.535 186.195C13.405 185.802 13.2117 185.49 12.955 185.26C12.7017 185.027 12.3883 184.91 12.015 184.91C11.7183 184.91 11.46 184.98 11.24 185.12C11.0233 185.26 10.8433 185.452 10.7 185.695C10.56 185.938 10.4533 186.215 10.38 186.525C10.31 186.835 10.275 187.16 10.275 187.5C10.275 187.957 10.34 188.382 10.47 188.775C10.6 189.168 10.7933 189.487 11.05 189.73C11.31 189.97 11.6317 190.09 12.015 190.09ZM15.9559 191L19.9959 184H21.1959L17.1559 191H15.9559ZM16.8009 186.935C16.5475 186.935 16.3142 186.873 16.1009 186.75C15.8909 186.623 15.7225 186.455 15.5959 186.245C15.4692 186.032 15.4059 185.797 15.4059 185.54C15.4059 185.273 15.4692 185.035 15.5959 184.825C15.7259 184.615 15.8959 184.45 16.1059 184.33C16.3192 184.207 16.5509 184.145 16.8009 184.145C17.0575 184.145 17.2909 184.208 17.5009 184.335C17.7109 184.458 17.8792 184.625 18.0059 184.835C18.1325 185.045 18.1959 185.28 18.1959 185.54C18.1959 185.803 18.1309 186.04 18.0009 186.25C17.8742 186.46 17.7042 186.627 17.4909 186.75C17.2809 186.873 17.0509 186.935 16.8009 186.935ZM16.8009 186.2C16.9875 186.2 17.1442 186.137 17.2709 186.01C17.3975 185.88 17.4609 185.723 17.4609 185.54C17.4609 185.353 17.3975 185.197 17.2709 185.07C17.1442 184.94 16.9875 184.875 16.8009 184.875C16.6175 184.875 16.4609 184.94 16.3309 185.07C16.2042 185.197 16.1409 185.353 16.1409 185.54C16.1409 185.723 16.2042 185.88 16.3309 186.01C16.4609 186.137 16.6175 186.2 16.8009 186.2ZM20.3609 190.865C20.1009 190.865 19.8642 190.8 19.6509 190.67C19.4409 190.537 19.2725 190.365 19.1459 190.155C19.0225 189.942 18.9609 189.712 18.9609 189.465C18.9609 189.205 19.0259 188.97 19.1559 188.76C19.2859 188.547 19.4559 188.378 19.6659 188.255C19.8792 188.128 20.1109 188.065 20.3609 188.065C20.6242 188.065 20.8609 188.13 21.0709 188.26C21.2809 188.39 21.4475 188.562 21.5709 188.775C21.6942 188.988 21.7559 189.218 21.7559 189.465C21.7559 189.722 21.6925 189.957 21.5659 190.17C21.4425 190.38 21.2742 190.548 21.0609 190.675C20.8509 190.802 20.6175 190.865 20.3609 190.865ZM20.3609 190.13C20.5409 190.13 20.6959 190.065 20.8259 189.935C20.9559 189.805 21.0209 189.648 21.0209 189.465C21.0209 189.282 20.9559 189.125 20.8259 188.995C20.6959 188.865 20.5409 188.8 20.3609 188.8C20.1775 188.8 20.0192 188.865 19.8859 188.995C19.7559 189.125 19.6909 189.282 19.6909 189.465C19.6909 189.648 19.7559 189.805 19.8859 189.935C20.0192 190.065 20.1775 190.13 20.3609 190.13Z" fill="#ECF4E9"/>
<path d="M44.72 191.5V183.1H45.812L50.006 189.676V183.1H51.014V191.5H49.928L45.728 184.924V191.5H44.72ZM55.0358 191.656C54.4838 191.656 53.9798 191.514 53.5238 191.23C53.0718 190.946 52.7098 190.566 52.4378 190.09C52.1698 189.61 52.0358 189.08 52.0358 188.5C52.0358 188.06 52.1138 187.65 52.2698 187.27C52.4258 186.886 52.6398 186.55 52.9118 186.262C53.1878 185.97 53.5078 185.742 53.8718 185.578C54.2358 185.414 54.6238 185.332 55.0358 185.332C55.4878 185.332 55.9018 185.424 56.2778 185.608C56.6578 185.788 56.9818 186.04 57.2498 186.364C57.5218 186.688 57.7238 187.064 57.8558 187.492C57.9918 187.92 58.0418 188.378 58.0058 188.866H53.1098C53.1578 189.206 53.2698 189.51 53.4458 189.778C53.6218 190.042 53.8458 190.252 54.1178 190.408C54.3938 190.564 54.6998 190.644 55.0358 190.648C55.3958 190.648 55.7218 190.556 56.0138 190.372C56.3058 190.184 56.5418 189.928 56.7218 189.604L57.7478 189.844C57.5078 190.376 57.1458 190.812 56.6618 191.152C56.1778 191.488 55.6358 191.656 55.0358 191.656ZM53.0798 188.074H56.9918C56.9598 187.738 56.8518 187.432 56.6678 187.156C56.4838 186.876 56.2498 186.652 55.9658 186.484C55.6818 186.316 55.3718 186.232 55.0358 186.232C54.6998 186.232 54.3918 186.314 54.1118 186.478C53.8318 186.642 53.5998 186.864 53.4158 187.144C53.2358 187.42 53.1238 187.73 53.0798 188.074ZM63.6677 185.5H64.6757V191.692C64.6757 192.088 64.5897 192.456 64.4177 192.796C64.2497 193.14 64.0217 193.438 63.7337 193.69C63.4457 193.946 63.1177 194.144 62.7497 194.284C62.3817 194.428 61.9977 194.5 61.5977 194.5C61.1817 194.5 60.7797 194.406 60.3917 194.218C60.0037 194.034 59.6637 193.786 59.3717 193.474C59.0837 193.166 58.8757 192.82 58.7477 192.436L59.6717 192.016C59.7477 192.292 59.8837 192.54 60.0797 192.76C60.2797 192.984 60.5117 193.16 60.7757 193.288C61.0437 193.42 61.3177 193.486 61.5977 193.486C61.8617 193.486 62.1157 193.44 62.3597 193.348C62.6077 193.256 62.8297 193.128 63.0257 192.964C63.2257 192.804 63.3817 192.614 63.4937 192.394C63.6097 192.178 63.6677 191.944 63.6677 191.692V190.498C63.4637 190.842 63.1937 191.122 62.8577 191.338C62.5257 191.55 62.1377 191.656 61.6937 191.656C61.2697 191.656 60.8717 191.574 60.4997 191.41C60.1277 191.246 59.8017 191.02 59.5217 190.732C59.2417 190.44 59.0217 190.104 58.8617 189.724C58.7017 189.344 58.6217 188.936 58.6217 188.5C58.6217 188.064 58.7017 187.656 58.8617 187.276C59.0217 186.892 59.2417 186.556 59.5217 186.268C59.8017 185.976 60.1277 185.748 60.4997 185.584C60.8717 185.42 61.2697 185.338 61.6937 185.338C62.1377 185.338 62.5257 185.444 62.8577 185.656C63.1937 185.868 63.4637 186.148 63.6677 186.496V185.5ZM61.6997 190.678C62.0877 190.678 62.4237 190.578 62.7077 190.378C62.9957 190.178 63.2177 189.912 63.3737 189.58C63.5297 189.248 63.6077 188.888 63.6077 188.5C63.6077 188.1 63.5277 187.736 63.3677 187.408C63.2117 187.076 62.9897 186.812 62.7017 186.616C62.4177 186.416 62.0837 186.316 61.6997 186.316C61.3237 186.316 60.9797 186.414 60.6677 186.61C60.3557 186.806 60.1077 187.07 59.9237 187.402C59.7437 187.73 59.6537 188.096 59.6537 188.5C59.6537 188.904 59.7457 189.272 59.9297 189.604C60.1177 189.932 60.3657 190.194 60.6737 190.39C60.9857 190.582 61.3277 190.678 61.6997 190.678ZM70.8604 185.5H71.8684V191.5H70.8604L70.8184 190.486C70.6304 190.834 70.3704 191.116 70.0384 191.332C69.7104 191.548 69.3184 191.656 68.8624 191.656C68.4224 191.656 68.0104 191.574 67.6264 191.41C67.2424 191.242 66.9024 191.012 66.6064 190.72C66.3144 190.424 66.0864 190.084 65.9224 189.7C65.7584 189.316 65.6764 188.902 65.6764 188.458C65.6764 188.03 65.7564 187.626 65.9164 187.246C66.0764 186.866 66.2984 186.534 66.5824 186.25C66.8704 185.962 67.2024 185.738 67.5784 185.578C67.9544 185.414 68.3584 185.332 68.7904 185.332C69.2624 185.332 69.6764 185.444 70.0324 185.668C70.3884 185.888 70.6764 186.174 70.8964 186.526L70.8604 185.5ZM68.8444 190.678C69.2404 190.678 69.5824 190.582 69.8704 190.39C70.1624 190.194 70.3864 189.93 70.5424 189.598C70.7024 189.266 70.7824 188.9 70.7824 188.5C70.7824 188.092 70.7024 187.724 70.5424 187.396C70.3824 187.064 70.1564 186.802 69.8644 186.61C69.5764 186.414 69.2364 186.316 68.8444 186.316C68.4484 186.316 68.0884 186.414 67.7644 186.61C67.4404 186.806 67.1824 187.07 66.9904 187.402C66.8024 187.73 66.7084 188.096 66.7084 188.5C66.7084 188.904 66.8064 189.272 67.0024 189.604C67.1984 189.932 67.4584 190.194 67.7824 190.39C68.1064 190.582 68.4604 190.678 68.8444 190.678ZM76.1757 186.508H74.8137L74.8077 191.5H73.7997L73.8057 186.508H72.7737V185.5H73.8057L73.7997 183.616H74.8077L74.8137 185.5H76.1757V186.508ZM77.1927 185.5H78.2007V191.5H77.1927V185.5ZM77.7087 184.522C77.5487 184.522 77.4147 184.47 77.3067 184.366C77.1987 184.262 77.1447 184.132 77.1447 183.976C77.1447 183.82 77.1987 183.69 77.3067 183.586C77.4147 183.482 77.5467 183.43 77.7027 183.43C77.8587 183.43 77.9907 183.482 78.0987 183.586C78.2067 183.69 78.2607 183.82 78.2607 183.976C78.2607 184.132 78.2067 184.262 78.0987 184.366C77.9947 184.47 77.8647 184.522 77.7087 184.522ZM82.6564 191.5H81.3664L79.1764 185.488H80.2504L82.0084 190.33L83.7664 185.488H84.8404L82.6564 191.5ZM88.2233 191.656C87.6713 191.656 87.1673 191.514 86.7113 191.23C86.2593 190.946 85.8973 190.566 85.6253 190.09C85.3573 189.61 85.2233 189.08 85.2233 188.5C85.2233 188.06 85.3013 187.65 85.4573 187.27C85.6133 186.886 85.8273 186.55 86.0993 186.262C86.3753 185.97 86.6953 185.742 87.0593 185.578C87.4233 185.414 87.8113 185.332 88.2233 185.332C88.6753 185.332 89.0893 185.424 89.4653 185.608C89.8453 185.788 90.1693 186.04 90.4373 186.364C90.7093 186.688 90.9113 187.064 91.0433 187.492C91.1793 187.92 91.2293 188.378 91.1933 188.866H86.2973C86.3453 189.206 86.4573 189.51 86.6333 189.778C86.8093 190.042 87.0333 190.252 87.3053 190.408C87.5813 190.564 87.8873 190.644 88.2233 190.648C88.5833 190.648 88.9093 190.556 89.2013 190.372C89.4933 190.184 89.7293 189.928 89.9093 189.604L90.9353 189.844C90.6953 190.376 90.3333 190.812 89.8493 191.152C89.3653 191.488 88.8233 191.656 88.2233 191.656ZM86.2673 188.074H90.1793C90.1473 187.738 90.0393 187.432 89.8553 187.156C89.6713 186.876 89.4373 186.652 89.1533 186.484C88.8693 186.316 88.5593 186.232 88.2233 186.232C87.8873 186.232 87.5793 186.314 87.2993 186.478C87.0193 186.642 86.7873 186.864 86.6033 187.144C86.4233 187.42 86.3113 187.73 86.2673 188.074Z" fill="#242E2C"/>
<defs>
<clipPath id="clip0_452_4463">
<rect width="136" height="121" fill="white" transform="translate(3)"/>
</clipPath>
</defs>
</svg>
