<svg width="18" height="18" viewBox="0 0 18 18" fill="none" xmlns="http://www.w3.org/2000/svg">
<path d="M7.58333 11.5H4.83333C3.94928 11.5 3.10143 11.8512 2.47631 12.4763C1.85119 13.1014 1.5 13.9493 1.5 14.8333V16.5M16.5001 16.5001L14.9167 14.9167M10.6667 4.83333C10.6667 6.67428 9.17428 8.16667 7.33333 8.16667C5.49238 8.16667 4 6.67428 4 4.83333C4 2.99238 5.49238 1.5 7.33333 1.5C9.17428 1.5 10.6667 2.99238 10.6667 4.83333ZM15.6667 13.1667C15.6667 14.5474 14.5474 15.6667 13.1667 15.6667C11.786 15.6667 10.6667 14.5474 10.6667 13.1667C10.6667 11.786 11.786 10.6667 13.1667 10.6667C14.5474 10.6667 15.6667 11.786 15.6667 13.1667Z" stroke="#09090B" stroke-width="1.5" stroke-linecap="round" stroke-linejoin="round"/>
</svg>
