<svg width="16" height="18" viewBox="0 0 16 18" fill="none" xmlns="http://www.w3.org/2000/svg">
<path d="M6.33398 17.3331V11.8581M8.00065 8.1665H8.00898M8.00065 4.83317H8.00898M9.66732 11.8581V17.3331M10.5007 12.3332C9.77942 11.7922 8.90219 11.4998 8.00065 11.4998C7.09911 11.4998 6.22188 11.7922 5.50065 12.3332M11.334 8.1665H11.3423M11.334 4.83317H11.3423M4.66732 8.1665H4.67565M4.66732 4.83317H4.67565M3.00065 0.666504H13.0007C13.9211 0.666504 14.6673 1.4127 14.6673 2.33317V15.6665C14.6673 16.587 13.9211 17.3332 13.0007 17.3332H3.00065C2.08018 17.3332 1.33398 16.587 1.33398 15.6665V2.33317C1.33398 1.4127 2.08018 0.666504 3.00065 0.666504Z" stroke="#09090B" stroke-linecap="round" stroke-linejoin="round"/>
</svg>
