<svg width="20" height="20" viewBox="0 0 20 20" fill="none" xmlns="http://www.w3.org/2000/svg">
<path d="M8.33398 18.3331V12.8581M10.0007 9.1665H10.009M10.0007 5.83317H10.009M11.6673 12.8581V18.3331M12.5007 13.3332C11.7794 12.7922 10.9022 12.4998 10.0007 12.4998C9.09911 12.4998 8.22188 12.7922 7.50065 13.3332M13.334 9.1665H13.3423M13.334 5.83317H13.3423M6.66732 9.1665H6.67565M6.66732 5.83317H6.67565M5.00065 1.6665H15.0007C15.9211 1.6665 16.6673 2.4127 16.6673 3.33317V16.6665C16.6673 17.587 15.9211 18.3332 15.0007 18.3332H5.00065C4.08018 18.3332 3.33398 17.587 3.33398 16.6665V3.33317C3.33398 2.4127 4.08018 1.6665 5.00065 1.6665Z" stroke="#09090B" stroke-linecap="round" stroke-linejoin="round"/>
</svg>
