<svg width="13" height="14" viewBox="0 0 13 14" fill="none" xmlns="http://www.w3.org/2000/svg">
<path d="M7 1V3C7 3.13261 6.94732 3.25979 6.85355 3.35355C6.75979 3.44732 6.63261 3.5 6.5 3.5C6.36739 3.5 6.24021 3.44732 6.14645 3.35355C6.05268 3.25979 6 3.13261 6 3V1C6 0.867392 6.05268 0.740215 6.14645 0.646447C6.24021 0.552678 6.36739 0.5 6.5 0.5C6.63261 0.5 6.75979 0.552678 6.85355 0.646447C6.94732 0.740215 7 0.867392 7 1ZM12.5 6.5H10.5C10.3674 6.5 10.2402 6.55268 10.1464 6.64645C10.0527 6.74021 10 6.86739 10 7C10 7.13261 10.0527 7.25979 10.1464 7.35355C10.2402 7.44732 10.3674 7.5 10.5 7.5H12.5C12.6326 7.5 12.7598 7.44732 12.8536 7.35355C12.9473 7.25979 13 7.13261 13 7C13 6.86739 12.9473 6.74021 12.8536 6.64645C12.7598 6.55268 12.6326 6.5 12.5 6.5ZM9.68188 9.475C9.58734 9.38519 9.46147 9.33586 9.33109 9.33753C9.20071 9.3392 9.07614 9.39174 8.98394 9.48394C8.89174 9.57614 8.8392 9.70071 8.83753 9.83109C8.83586 9.96147 8.88519 10.0873 8.975 10.1819L10.3888 11.5962C10.4826 11.6901 10.6098 11.7428 10.7425 11.7428C10.8752 11.7428 11.0024 11.6901 11.0962 11.5962C11.1901 11.5024 11.2428 11.3752 11.2428 11.2425C11.2428 11.1098 11.1901 10.9826 11.0962 10.8888L9.68188 9.475ZM6.5 10.5C6.36739 10.5 6.24021 10.5527 6.14645 10.6464C6.05268 10.7402 6 10.8674 6 11V13C6 13.1326 6.05268 13.2598 6.14645 13.3536C6.24021 13.4473 6.36739 13.5 6.5 13.5C6.63261 13.5 6.75979 13.4473 6.85355 13.3536C6.94732 13.2598 7 13.1326 7 13V11C7 10.8674 6.94732 10.7402 6.85355 10.6464C6.75979 10.5527 6.63261 10.5 6.5 10.5ZM3.31812 9.475L1.90375 10.8888C1.80993 10.9826 1.75722 11.1098 1.75722 11.2425C1.75722 11.3752 1.80993 11.5024 1.90375 11.5962C1.99757 11.6901 2.12482 11.7428 2.2575 11.7428C2.39018 11.7428 2.51743 11.6901 2.61125 11.5962L4.025 10.1819C4.11481 10.0873 4.16414 9.96147 4.16247 9.83109C4.1608 9.70071 4.10826 9.57614 4.01606 9.48394C3.92386 9.39174 3.79929 9.3392 3.66891 9.33753C3.53853 9.33586 3.41266 9.38519 3.31812 9.475ZM3 7C3 6.86739 2.94732 6.74021 2.85355 6.64645C2.75979 6.55268 2.63261 6.5 2.5 6.5H0.5C0.367392 6.5 0.240215 6.55268 0.146447 6.64645C0.0526784 6.74021 0 6.86739 0 7C0 7.13261 0.0526784 7.25979 0.146447 7.35355C0.240215 7.44732 0.367392 7.5 0.5 7.5H2.5C2.63261 7.5 2.75979 7.44732 2.85355 7.35355C2.94732 7.25979 3 7.13261 3 7ZM2.61125 2.40375C2.51743 2.30993 2.39018 2.25722 2.2575 2.25722C2.12482 2.25722 1.99757 2.30993 1.90375 2.40375C1.80993 2.49757 1.75722 2.62482 1.75722 2.7575C1.75722 2.89018 1.80993 3.01743 1.90375 3.11125L3.31812 4.525C3.41266 4.61481 3.53853 4.66414 3.66891 4.66247C3.79929 4.6608 3.92386 4.60826 4.01606 4.51606C4.10826 4.42386 4.1608 4.29929 4.16247 4.16891C4.16414 4.03853 4.11481 3.91266 4.025 3.81812L2.61125 2.40375Z" fill="#1E4841"/>
</svg>
