<svg width="14" height="16" viewBox="0 0 14 16" fill="none" xmlns="http://www.w3.org/2000/svg">
<path d="M12.6654 4.66683H10.6654C10.3117 4.66683 9.9726 4.52635 9.72256 4.27631C9.47251 4.02626 9.33203 3.68712 9.33203 3.3335V1.3335M1.33203 5.06689V13.6002C1.33203 13.8831 1.44441 14.1544 1.64445 14.3545C1.84449 14.5545 2.1158 14.6669 2.3987 14.6669H8.93203M5.33203 12.0002C4.97841 12.0002 4.63927 11.8597 4.38922 11.6096C4.13917 11.3596 3.9987 11.0205 3.9987 10.6668V2.66683C3.9987 2.31321 4.13917 1.97407 4.38922 1.72402C4.63927 1.47397 4.97841 1.3335 5.33203 1.3335H9.9987L12.6654 4.00016V10.6668C12.6654 11.0205 12.5249 11.3596 12.2748 11.6096C12.0248 11.8597 11.6857 12.0002 11.332 12.0002H5.33203Z" stroke="#1E4841" stroke-linecap="round" stroke-linejoin="round"/>
</svg>
