<svg width="16" height="11" viewBox="0 0 16 11" fill="none" xmlns="http://www.w3.org/2000/svg">
<path d="M15.166 9.50024H14.666V1.61899L15.2704 1.48899C15.336 1.47669 15.3985 1.45138 15.4541 1.41455C15.5098 1.37773 15.5575 1.33013 15.5945 1.27457C15.6314 1.21901 15.6569 1.15661 15.6694 1.09105C15.6819 1.02549 15.6811 0.958095 15.6671 0.892837C15.6532 0.827578 15.6263 0.765779 15.588 0.71108C15.5498 0.656382 15.501 0.609893 15.4445 0.574353C15.388 0.538812 15.325 0.514941 15.2591 0.504144C15.1932 0.493348 15.1259 0.495846 15.061 0.51149L1.06102 3.51149C0.940406 3.53752 0.833678 3.60722 0.761362 3.70719C0.689046 3.80716 0.656248 3.93035 0.669278 4.05304C0.682308 4.17574 0.740244 4.28928 0.831944 4.37184C0.923644 4.45439 1.04263 4.50012 1.16602 4.50024C1.20152 4.50018 1.23692 4.49641 1.27164 4.48899L1.66602 4.40462V9.50024H1.16602C1.03341 9.50024 0.90623 9.55292 0.812462 9.64669C0.718694 9.74045 0.666016 9.86763 0.666016 10.0002C0.666016 10.1328 0.718694 10.26 0.812462 10.3538C0.90623 10.4476 1.03341 10.5002 1.16602 10.5002H15.166C15.2986 10.5002 15.4258 10.4476 15.5196 10.3538C15.6133 10.26 15.666 10.1328 15.666 10.0002C15.666 9.86763 15.6133 9.74045 15.5196 9.64669C15.4258 9.55292 15.2986 9.50024 15.166 9.50024ZM2.66602 4.18774L13.666 1.83337V9.50024H12.166V6.00024C12.166 5.86763 12.1133 5.74046 12.0196 5.64669C11.9258 5.55292 11.7986 5.50024 11.666 5.50024H4.66602C4.53341 5.50024 4.40623 5.55292 4.31246 5.64669C4.21869 5.74046 4.16602 5.86763 4.16602 6.00024V9.50024H2.66602V4.18774ZM11.166 7.50024H5.16602V6.50024H11.166V7.50024ZM5.16602 8.50024H11.166V9.50024H5.16602V8.50024Z" fill="white"/>
</svg>
