<svg width="18" height="18" viewBox="0 0 18 18" fill="none" xmlns="http://www.w3.org/2000/svg">
<path fill-rule="evenodd" clip-rule="evenodd" d="M9 2.125C5.20304 2.125 2.125 5.20304 2.125 9C2.125 12.797 5.20304 15.875 9 15.875C12.797 15.875 15.875 12.797 15.875 9V7.75046C15.875 7.40528 16.1548 7.125 16.5 7.125C16.8452 7.125 17.125 7.40482 17.125 7.75V9C17.125 13.4873 13.4873 17.125 9 17.125C4.51269 17.125 0.875 13.4873 0.875 9C0.875 4.51269 4.51269 0.875 9 0.875L10.2494 0.875002L10.25 2.125L9 2.125ZM10.875 1.5C10.875 1.84518 10.5952 2.125 10.25 2.125L10.2494 0.875002C10.5946 0.875002 10.875 1.15482 10.875 1.5Z" fill="#28593F"/>
<path fill-rule="evenodd" clip-rule="evenodd" d="M13.375 2.125C13.0298 2.125 12.75 1.84518 12.75 1.5C12.75 1.15482 13.0298 0.875 13.375 0.875H16.5C16.8452 0.875 17.125 1.15482 17.125 1.5V4.625C17.125 4.97018 16.8452 5.25 16.5 5.25C16.1548 5.25 15.875 4.97018 15.875 4.625V3.00888L13.8169 5.06694C13.5729 5.31102 13.1771 5.31102 12.9331 5.06694C12.689 4.82286 12.689 4.42714 12.9331 4.18306L14.9911 2.125H13.375Z" fill="#28593F"/>
<path d="M9 4C9.34518 4 9.625 4.27982 9.625 4.625V5.25H10.875C11.2202 5.25 11.5 5.52982 11.5 5.875C11.5 6.22018 11.2202 6.5 10.875 6.5H8.0625C7.81386 6.5 7.5754 6.59877 7.39959 6.77459C7.22377 6.9504 7.125 7.18886 7.125 7.4375C7.125 7.68614 7.22377 7.9246 7.39959 8.10041C7.5754 8.27623 7.81386 8.375 8.0625 8.375H9.9375C10.5177 8.375 11.0741 8.60547 11.4843 9.0157C11.8945 9.42594 12.125 9.98234 12.125 10.5625C12.125 11.1427 11.8945 11.6991 11.4843 12.1093C11.0741 12.5195 10.5177 12.75 9.9375 12.75H9.625V13.375C9.625 13.7202 9.34518 14 9 14C8.65482 14 8.375 13.7202 8.375 13.375V12.75H7.125C6.77982 12.75 6.5 12.4702 6.5 12.125C6.5 11.7798 6.77982 11.5 7.125 11.5H9.9375C10.1861 11.5 10.4246 11.4012 10.6004 11.2254C10.7762 11.0496 10.875 10.8111 10.875 10.5625C10.875 10.3139 10.7762 10.0754 10.6004 9.89959C10.4246 9.72377 10.1861 9.625 9.9375 9.625H8.0625C7.48234 9.625 6.92594 9.39453 6.5157 8.9843C6.10547 8.57406 5.875 8.01766 5.875 7.4375C5.875 6.85734 6.10547 6.30094 6.5157 5.8907C6.92594 5.48047 7.48234 5.25 8.0625 5.25H8.375V4.625C8.375 4.27982 8.65482 4 9 4Z" fill="#28593F"/>
</svg>
