<svg width="30" height="30" viewBox="0 0 30 30" fill="none" xmlns="http://www.w3.org/2000/svg">
<path fill-rule="evenodd" clip-rule="evenodd" d="M26.9531 5.95311C24.6797 3.04686 21.3516 1.19529 17.6719 1.19529C10.5469 1.19529 5.32034 7.82811 5.32034 15C5.32034 19.9922 8.64846 23.7422 12.3281 23.7422C12.6797 23.7422 13.0078 23.7187 13.3594 23.6484C10.875 21.8437 9.30471 18.5625 9.30471 15C9.30471 9.32811 13.1485 4.89842 17.6719 4.89842C22.6172 4.89842 26.0391 9.79686 26.0391 15C26.0156 18.8437 24.6563 22.664 22.2422 25.4765C20.1328 27.9375 17.4141 29.4844 14.4141 29.9765C14.4141 29.9765 14.6719 30 15 30C23.2735 30 30 23.2734 30 15C30 11.6015 28.875 8.46092 26.9531 5.95311ZM24.6797 15C24.6797 10.0078 21.3516 6.25781 17.6719 6.25781C17.3203 6.25781 16.9922 6.28125 16.6406 6.35156C19.125 8.15625 20.6953 11.4375 20.6953 15C20.6953 20.6719 16.8516 25.1016 12.3281 25.1016C7.38281 25.1016 3.96094 20.2031 3.96094 15C3.98438 11.1562 5.34375 7.33594 7.75781 4.52344C9.86719 2.0625 12.5859 0.515625 15.5859 0.0234375C15.5859 0.0234375 15.3281 0 15 0C6.72656 0 0 6.72656 0 15C0 18.3984 1.125 21.5391 3.04688 24.0469C5.32031 26.9531 8.64844 28.7812 12.3281 28.7812C19.4531 28.8047 24.6797 22.1719 24.6797 15Z" fill="#0D7445"/>
</svg>
