<svg width="124" height="40" viewBox="0 0 124 40" fill="none" xmlns="http://www.w3.org/2000/svg">
<path fill-rule="evenodd" clip-rule="evenodd" d="M26.9531 5.95311C24.6797 3.04686 21.3516 1.19529 17.6719 1.19529C10.5469 1.19529 5.32034 7.82811 5.32034 15C5.32034 19.9922 8.64846 23.7422 12.3281 23.7422C12.6797 23.7422 13.0078 23.7187 13.3594 23.6484C10.875 21.8437 9.30471 18.5625 9.30471 15C9.30471 9.32811 13.1485 4.89842 17.6719 4.89842C22.6172 4.89842 26.0391 9.79686 26.0391 15C26.0156 18.8437 24.6563 22.664 22.2422 25.4765C20.1328 27.9375 17.4141 29.4844 14.4141 29.9765C14.4141 29.9765 14.6719 30 15 30C23.2735 30 30 23.2734 30 15C30 11.6015 28.875 8.46092 26.9531 5.95311ZM24.6797 15C24.6797 10.0078 21.3516 6.25781 17.6719 6.25781C17.3203 6.25781 16.9922 6.28125 16.6406 6.35156C19.125 8.15625 20.6953 11.4375 20.6953 15C20.6953 20.6719 16.8516 25.1016 12.3281 25.1016C7.38281 25.1016 3.96094 20.2031 3.96094 15C3.98438 11.1562 5.34375 7.33594 7.75781 4.52344C9.86719 2.0625 12.5859 0.515625 15.5859 0.0234375C15.5859 0.0234375 15.3281 0 15 0C6.72656 0 0 6.72656 0 15C0 18.3984 1.125 21.5391 3.04688 24.0469C5.32031 26.9531 8.64844 28.7812 12.3281 28.7812C19.4531 28.8047 24.6797 22.1719 24.6797 15Z" fill="#0D7445"/>
<path d="M48.4606 26.416C46.946 26.416 45.522 26.1173 44.1886 25.52C42.8553 24.912 41.682 24.0747 40.6686 23.008C39.6553 21.9413 38.8606 20.7093 38.2846 19.312C37.7086 17.904 37.4206 16.4 37.4206 14.8C37.4206 13.2 37.7086 11.7013 38.2846 10.304C38.8606 8.896 39.6553 7.65867 40.6686 6.592C41.682 5.52533 42.8553 4.69333 44.1886 4.096C45.522 3.488 46.946 3.184 48.4606 3.184C49.986 3.184 51.4153 3.488 52.7486 4.096C54.082 4.69333 55.2553 5.52533 56.2686 6.592C57.282 7.65867 58.0713 8.896 58.6366 10.304C59.2126 11.7013 59.5006 13.2 59.5006 14.8C59.5006 16.4 59.2126 17.904 58.6366 19.312C58.0713 20.7093 57.282 21.9413 56.2686 23.008C55.2553 24.0747 54.082 24.912 52.7486 25.52C51.4153 26.1173 49.986 26.416 48.4606 26.416ZM48.4606 22.512C49.442 22.512 50.3646 22.3093 51.2286 21.904C52.0926 21.4987 52.85 20.944 53.5006 20.24C54.162 19.5253 54.674 18.704 55.0366 17.776C55.41 16.848 55.5966 15.856 55.5966 14.8C55.5966 13.744 55.41 12.752 55.0366 11.824C54.6633 10.8853 54.146 10.064 53.4846 9.36C52.834 8.656 52.0766 8.10133 51.2126 7.696C50.3593 7.29067 49.442 7.088 48.4606 7.088C47.4793 7.088 46.5566 7.29067 45.6926 7.696C44.8286 8.10133 44.066 8.66133 43.4046 9.376C42.754 10.08 42.242 10.896 41.8686 11.824C41.506 12.752 41.3246 13.744 41.3246 14.8C41.3246 15.8667 41.5113 16.864 41.8846 17.792C42.258 18.72 42.77 19.5413 43.4206 20.256C44.082 20.96 44.8393 21.5147 45.6926 21.92C46.5566 22.3147 47.4793 22.512 48.4606 22.512ZM62.5766 26L62.5606 10H66.4646L66.4806 11.424C67.0246 10.848 67.6753 10.3947 68.4326 10.064C69.19 9.72267 70.006 9.552 70.8806 9.552C71.4673 9.552 72.054 9.63733 72.6406 9.808L71.1046 13.744C70.6993 13.584 70.294 13.504 69.8886 13.504C69.2593 13.504 68.6833 13.6587 68.1606 13.968C67.6486 14.2667 67.238 14.6773 66.9286 15.2C66.63 15.712 66.4806 16.2827 66.4806 16.912V26H62.5766ZM82.9476 9.552C84.505 9.552 85.9236 9.93067 87.2036 10.688C88.4836 11.4453 89.5023 12.464 90.2596 13.744C91.017 15.0133 91.3956 16.4213 91.3956 17.968C91.3956 19.1307 91.177 20.224 90.7396 21.248C90.3023 22.272 89.6943 23.1733 88.9156 23.952C88.1476 24.72 87.2516 25.3227 86.2276 25.76C85.2143 26.1973 84.121 26.416 82.9476 26.416C81.945 26.416 81.0543 26.192 80.2756 25.744C79.5076 25.2853 78.8623 24.6933 78.3396 23.968V26H74.4356V2H78.3396V12C78.8623 11.2747 79.5076 10.688 80.2756 10.24C81.0543 9.78133 81.945 9.552 82.9476 9.552ZM82.8996 22.64C83.7316 22.64 84.4836 22.432 85.1556 22.016C85.8383 21.5893 86.3823 21.024 86.7876 20.32C87.193 19.616 87.3956 18.832 87.3956 17.968C87.3956 17.1147 87.193 16.336 86.7876 15.632C86.3823 14.9173 85.8383 14.352 85.1556 13.936C84.473 13.52 83.721 13.312 82.8996 13.312C82.089 13.312 81.3636 13.5253 80.7236 13.952C80.0836 14.368 79.5823 14.9333 79.2196 15.648C78.857 16.352 78.6756 17.1253 78.6756 17.968C78.6756 18.832 78.857 19.6213 79.2196 20.336C79.5823 21.04 80.0836 21.6 80.7236 22.016C81.3636 22.432 82.089 22.64 82.8996 22.64ZM101.007 26.416C99.5349 26.416 98.1909 26.0373 96.9749 25.28C95.7695 24.5227 94.8042 23.504 94.0789 22.224C93.3642 20.944 93.0069 19.5307 93.0069 17.984C93.0069 16.8213 93.2149 15.7333 93.6309 14.72C94.0469 13.696 94.6175 12.8 95.3429 12.032C96.0789 11.2533 96.9322 10.6453 97.9029 10.208C98.8735 9.77067 99.9082 9.552 101.007 9.552C102.255 9.552 103.396 9.81867 104.431 10.352C105.476 10.8747 106.362 11.5947 107.087 12.512C107.812 13.4293 108.34 14.4747 108.671 15.648C109.002 16.8213 109.076 18.048 108.895 19.328H97.1989C97.3482 19.9253 97.5935 20.464 97.9349 20.944C98.2762 21.4133 98.7082 21.792 99.2309 22.08C99.7535 22.3573 100.346 22.5013 101.007 22.512C101.69 22.5227 102.308 22.3627 102.863 22.032C103.428 21.6907 103.898 21.232 104.271 20.656L108.255 21.584C107.604 23.0027 106.634 24.1653 105.343 25.072C104.052 25.968 102.607 26.416 101.007 26.416ZM97.0709 16.4H104.943C104.826 15.76 104.575 15.184 104.191 14.672C103.818 14.1493 103.354 13.7333 102.799 13.424C102.244 13.1147 101.647 12.96 101.007 12.96C100.367 12.96 99.7749 13.1147 99.2309 13.424C98.6869 13.7227 98.2229 14.1333 97.8389 14.656C97.4655 15.168 97.2095 15.7493 97.0709 16.4Z" fill="#0D7445"/>
<path d="M36.6 36V30.4H37.432V36H36.6ZM42.1113 33.492V36H41.2793V33.696C41.2793 33.5173 41.2353 33.3547 41.1473 33.208C41.0619 33.0613 40.9459 32.9453 40.7993 32.86C40.6553 32.772 40.4926 32.728 40.3113 32.728C40.1353 32.728 39.9739 32.772 39.8273 32.86C39.6806 32.9453 39.5633 33.0613 39.4753 33.208C39.3873 33.3547 39.3433 33.5173 39.3433 33.696V36H38.5113V32H39.3433V32.424C39.4819 32.2587 39.6526 32.128 39.8553 32.032C40.0579 31.936 40.2766 31.888 40.5113 31.888C40.8073 31.888 41.0766 31.96 41.3193 32.104C41.5619 32.248 41.7539 32.4413 41.8953 32.684C42.0393 32.9267 42.1113 33.196 42.1113 33.492ZM45.0217 32.832H44.1817L44.1777 36H43.3457L43.3497 32.832H42.7137V32H43.3497L43.3457 30.744H44.1777L44.1817 32H45.0217V32.832ZM47.4041 36.104C47.0361 36.104 46.7001 36.0093 46.3961 35.82C46.0947 35.6307 45.8534 35.3773 45.6721 35.06C45.4934 34.74 45.4041 34.3867 45.4041 34C45.4041 33.7067 45.4561 33.4333 45.5601 33.18C45.6641 32.924 45.8067 32.7 45.9881 32.508C46.1721 32.3133 46.3854 32.1613 46.6281 32.052C46.8707 31.9427 47.1294 31.888 47.4041 31.888C47.7107 31.888 47.9921 31.952 48.2481 32.08C48.5041 32.2053 48.7227 32.38 48.9041 32.604C49.0854 32.8253 49.2187 33.0813 49.3041 33.372C49.3894 33.66 49.4147 33.9667 49.3801 34.292H46.2961C46.3307 34.476 46.3974 34.6427 46.4961 34.792C46.5974 34.9387 46.7254 35.0547 46.8801 35.14C47.0374 35.2253 47.2121 35.2693 47.4041 35.272C47.6067 35.272 47.7907 35.2213 47.9561 35.12C48.1241 35.0187 48.2614 34.8787 48.3681 34.7L49.2121 34.896C49.0521 35.2507 48.8107 35.5413 48.4881 35.768C48.1654 35.992 47.8041 36.104 47.4041 36.104ZM46.2681 33.656H48.5401C48.5134 33.464 48.4454 33.2907 48.3361 33.136C48.2294 32.9787 48.0947 32.8547 47.9321 32.764C47.7721 32.6707 47.5961 32.624 47.4041 32.624C47.2147 32.624 47.0387 32.6693 46.8761 32.76C46.7161 32.8507 46.5827 32.9747 46.4761 33.132C46.3721 33.2867 46.3027 33.4613 46.2681 33.656ZM49.9878 36V30H50.8198V36H49.9878ZM51.7769 36V30H52.6089V36H51.7769ZM53.5659 32H54.3979V36H53.5659V32ZM53.9899 31.42C53.8619 31.42 53.7553 31.3787 53.6699 31.296C53.5846 31.2133 53.5419 31.1093 53.5419 30.984C53.5419 30.8613 53.5846 30.7587 53.6699 30.676C53.7553 30.5907 53.8606 30.548 53.9859 30.548C54.1086 30.548 54.2126 30.5907 54.2979 30.676C54.3833 30.7587 54.4259 30.8613 54.4259 30.984C54.4259 31.1093 54.3833 31.2133 54.2979 31.296C54.2153 31.3787 54.1126 31.42 53.9899 31.42ZM58.3287 32H59.1607V36.104C59.1607 36.3787 59.102 36.632 58.9847 36.864C58.87 37.096 58.714 37.296 58.5167 37.464C58.3194 37.6347 58.0927 37.7667 57.8367 37.86C57.5834 37.9533 57.318 38 57.0407 38C56.7607 38 56.4914 37.94 56.2327 37.82C55.974 37.7027 55.746 37.5427 55.5487 37.34C55.354 37.1373 55.2087 36.908 55.1127 36.652L55.8767 36.308C55.93 36.4733 56.0154 36.62 56.1327 36.748C56.2527 36.876 56.3914 36.9773 56.5487 37.052C56.7087 37.1267 56.8727 37.164 57.0407 37.164C57.206 37.164 57.3647 37.1373 57.5167 37.084C57.6714 37.0333 57.8087 36.9613 57.9287 36.868C58.0514 36.7747 58.1487 36.6627 58.2207 36.532C58.2927 36.4013 58.3287 36.2587 58.3287 36.104V35.428C58.198 35.6307 58.03 35.7947 57.8247 35.92C57.6194 36.0427 57.3807 36.104 57.1087 36.104C56.826 36.104 56.5594 36.0493 56.3087 35.94C56.058 35.8307 55.838 35.68 55.6487 35.488C55.4594 35.2933 55.3114 35.0693 55.2047 34.816C55.098 34.5627 55.0447 34.2907 55.0447 34C55.0447 33.7093 55.098 33.4373 55.2047 33.184C55.3114 32.928 55.4594 32.704 55.6487 32.512C55.838 32.3173 56.058 32.1653 56.3087 32.056C56.5594 31.9467 56.826 31.892 57.1087 31.892C57.3807 31.892 57.6194 31.9547 57.8247 32.08C58.03 32.2027 58.198 32.3667 58.3287 32.572V32ZM57.1167 35.3C57.3487 35.3 57.5514 35.2413 57.7247 35.124C57.898 35.004 58.0327 34.8453 58.1287 34.648C58.2247 34.4507 58.2727 34.2347 58.2727 34C58.2727 33.76 58.2234 33.5427 58.1247 33.348C58.0287 33.1507 57.894 32.9933 57.7207 32.876C57.5474 32.756 57.346 32.696 57.1167 32.696C56.8927 32.696 56.6874 32.7547 56.5007 32.872C56.3167 32.9893 56.17 33.1467 56.0607 33.344C55.9514 33.5413 55.8967 33.76 55.8967 34C55.8967 34.24 55.9514 34.4587 56.0607 34.656C56.1727 34.8533 56.3207 35.0107 56.5047 35.128C56.6914 35.2427 56.8954 35.3 57.1167 35.3ZM61.8103 36.104C61.4423 36.104 61.1063 36.0093 60.8023 35.82C60.501 35.6307 60.2596 35.3773 60.0783 35.06C59.8996 34.74 59.8103 34.3867 59.8103 34C59.8103 33.7067 59.8623 33.4333 59.9663 33.18C60.0703 32.924 60.213 32.7 60.3943 32.508C60.5783 32.3133 60.7916 32.1613 61.0343 32.052C61.277 31.9427 61.5356 31.888 61.8103 31.888C62.117 31.888 62.3983 31.952 62.6543 32.08C62.9103 32.2053 63.129 32.38 63.3103 32.604C63.4916 32.8253 63.625 33.0813 63.7103 33.372C63.7956 33.66 63.821 33.9667 63.7863 34.292H60.7023C60.737 34.476 60.8036 34.6427 60.9023 34.792C61.0036 34.9387 61.1316 35.0547 61.2863 35.14C61.4436 35.2253 61.6183 35.2693 61.8103 35.272C62.013 35.272 62.197 35.2213 62.3623 35.12C62.5303 35.0187 62.6676 34.8787 62.7743 34.7L63.6183 34.896C63.4583 35.2507 63.217 35.5413 62.8943 35.768C62.5716 35.992 62.2103 36.104 61.8103 36.104ZM60.6743 33.656H62.9463C62.9196 33.464 62.8516 33.2907 62.7423 33.136C62.6356 32.9787 62.501 32.8547 62.3383 32.764C62.1783 32.6707 62.0023 32.624 61.8103 32.624C61.621 32.624 61.445 32.6693 61.2823 32.76C61.1223 32.8507 60.989 32.9747 60.8823 33.132C60.7783 33.2867 60.709 33.4613 60.6743 33.656ZM68.0488 33.492V36H67.2168V33.696C67.2168 33.5173 67.1728 33.3547 67.0848 33.208C66.9994 33.0613 66.8834 32.9453 66.7368 32.86C66.5928 32.772 66.4301 32.728 66.2488 32.728C66.0728 32.728 65.9114 32.772 65.7648 32.86C65.6181 32.9453 65.5008 33.0613 65.4128 33.208C65.3248 33.3547 65.2808 33.5173 65.2808 33.696V36H64.4488V32H65.2808V32.424C65.4194 32.2587 65.5901 32.128 65.7928 32.032C65.9954 31.936 66.2141 31.888 66.4488 31.888C66.7448 31.888 67.0141 31.96 67.2568 32.104C67.4994 32.248 67.6914 32.4413 67.8328 32.684C67.9768 32.9267 68.0488 33.196 68.0488 33.492ZM70.9592 32.832H70.1192L70.1152 36H69.2832L69.2872 32.832H68.6512V32H69.2872L69.2832 30.744H70.1152L70.1192 32H70.9592V32.832ZM73.5972 36V30.4H75.4492C75.8359 30.4 76.1985 30.4733 76.5372 30.62C76.8759 30.764 77.1732 30.9653 77.4292 31.224C77.6852 31.48 77.8852 31.7773 78.0292 32.116C78.1759 32.452 78.2492 32.8133 78.2492 33.2C78.2492 33.5867 78.1759 33.9493 78.0292 34.288C77.8852 34.624 77.6852 34.9213 77.4292 35.18C77.1732 35.436 76.8759 35.6373 76.5372 35.784C76.1985 35.928 75.8359 36 75.4492 36H73.5972ZM74.4292 35.168H75.4492C75.7212 35.168 75.9745 35.1173 76.2092 35.016C76.4465 34.9147 76.6559 34.7733 76.8372 34.592C77.0212 34.4107 77.1639 34.2013 77.2652 33.964C77.3665 33.7267 77.4172 33.472 77.4172 33.2C77.4172 32.928 77.3665 32.6733 77.2652 32.436C77.1639 32.1987 77.0212 31.9893 76.8372 31.808C76.6559 31.6267 76.4465 31.4853 76.2092 31.384C75.9745 31.2827 75.7212 31.232 75.4492 31.232H74.4292V35.168ZM80.6384 36.104C80.2704 36.104 79.9344 36.0093 79.6304 35.82C79.3291 35.6307 79.0878 35.3773 78.9064 35.06C78.7278 34.74 78.6384 34.3867 78.6384 34C78.6384 33.7067 78.6904 33.4333 78.7944 33.18C78.8984 32.924 79.0411 32.7 79.2224 32.508C79.4064 32.3133 79.6198 32.1613 79.8624 32.052C80.1051 31.9427 80.3638 31.888 80.6384 31.888C80.9451 31.888 81.2264 31.952 81.4824 32.08C81.7384 32.2053 81.9571 32.38 82.1384 32.604C82.3198 32.8253 82.4531 33.0813 82.5384 33.372C82.6238 33.66 82.6491 33.9667 82.6144 34.292H79.5304C79.5651 34.476 79.6318 34.6427 79.7304 34.792C79.8318 34.9387 79.9598 35.0547 80.1144 35.14C80.2718 35.2253 80.4464 35.2693 80.6384 35.272C80.8411 35.272 81.0251 35.2213 81.1904 35.12C81.3584 35.0187 81.4958 34.8787 81.6024 34.7L82.4464 34.896C82.2864 35.2507 82.0451 35.5413 81.7224 35.768C81.3998 35.992 81.0384 36.104 80.6384 36.104ZM79.5024 33.656H81.7744C81.7478 33.464 81.6798 33.2907 81.5704 33.136C81.4638 32.9787 81.3291 32.8547 81.1664 32.764C81.0064 32.6707 80.8304 32.624 80.6384 32.624C80.4491 32.624 80.2731 32.6693 80.1104 32.76C79.9504 32.8507 79.8171 32.9747 79.7104 33.132C79.6064 33.2867 79.5371 33.4613 79.5024 33.656ZM86.3811 32H87.2131V36H86.3771L86.3451 35.42C86.2277 35.6253 86.0691 35.7907 85.8691 35.916C85.6691 36.0413 85.4331 36.104 85.1611 36.104C84.8677 36.104 84.5917 36.0493 84.3331 35.94C84.0744 35.828 83.8464 35.6733 83.6491 35.476C83.4544 35.2787 83.3024 35.052 83.1931 34.796C83.0837 34.5373 83.0291 34.26 83.0291 33.964C83.0291 33.6787 83.0824 33.4107 83.1891 33.16C83.2957 32.9067 83.4437 32.6853 83.6331 32.496C83.8224 32.3067 84.0411 32.1587 84.2891 32.052C84.5397 31.9427 84.8077 31.888 85.0931 31.888C85.3837 31.888 85.6397 31.9547 85.8611 32.088C86.0851 32.2187 86.2704 32.3867 86.4171 32.592L86.3811 32ZM85.1411 35.3C85.3757 35.3 85.5811 35.2427 85.7571 35.128C85.9331 35.0107 86.0691 34.8533 86.1651 34.656C86.2637 34.4587 86.3131 34.24 86.3131 34C86.3131 33.7573 86.2637 33.5373 86.1651 33.34C86.0664 33.1427 85.9291 32.9867 85.7531 32.872C85.5797 32.7547 85.3757 32.696 85.1411 32.696C84.9091 32.696 84.6971 32.7547 84.5051 32.872C84.3131 32.9893 84.1611 33.1467 84.0491 33.344C83.9371 33.5413 83.8811 33.76 83.8811 34C83.8811 34.2427 83.9384 34.4627 84.0531 34.66C84.1704 34.8547 84.3237 35.0107 84.5131 35.128C84.7051 35.2427 84.9144 35.3 85.1411 35.3ZM88.0425 36V30H88.8745V36H88.0425ZM93.6294 30.4H94.6014L96.6374 36H95.7574L95.3694 34.936H92.8614L92.4774 36H91.5934L93.6294 30.4ZM93.1694 34.104H95.0614L94.1134 31.504L93.1694 34.104ZM100.893 33.492V36H100.061V33.696C100.061 33.5173 100.017 33.3547 99.9285 33.208C99.8432 33.0613 99.7272 32.9453 99.5805 32.86C99.4365 32.772 99.2738 32.728 99.0925 32.728C98.9165 32.728 98.7552 32.772 98.6085 32.86C98.4618 32.9453 98.3445 33.0613 98.2565 33.208C98.1685 33.3547 98.1245 33.5173 98.1245 33.696V36H97.2925V32H98.1245V32.424C98.2632 32.2587 98.4338 32.128 98.6365 32.032C98.8392 31.936 99.0578 31.888 99.2925 31.888C99.5885 31.888 99.8578 31.96 100.101 32.104C100.343 32.248 100.535 32.4413 100.677 32.684C100.821 32.9267 100.893 33.196 100.893 33.492ZM104.725 32H105.557V36H104.721L104.689 35.42C104.571 35.6253 104.413 35.7907 104.213 35.916C104.013 36.0413 103.777 36.104 103.505 36.104C103.211 36.104 102.935 36.0493 102.677 35.94C102.418 35.828 102.19 35.6733 101.993 35.476C101.798 35.2787 101.646 35.052 101.537 34.796C101.427 34.5373 101.373 34.26 101.373 33.964C101.373 33.6787 101.426 33.4107 101.533 33.16C101.639 32.9067 101.787 32.6853 101.977 32.496C102.166 32.3067 102.385 32.1587 102.633 32.052C102.883 31.9427 103.151 31.888 103.437 31.888C103.727 31.888 103.983 31.9547 104.205 32.088C104.429 32.2187 104.614 32.3867 104.761 32.592L104.725 32ZM103.485 35.3C103.719 35.3 103.925 35.2427 104.101 35.128C104.277 35.0107 104.413 34.8533 104.509 34.656C104.607 34.4587 104.657 34.24 104.657 34C104.657 33.7573 104.607 33.5373 104.509 33.34C104.41 33.1427 104.273 32.9867 104.097 32.872C103.923 32.7547 103.719 32.696 103.485 32.696C103.253 32.696 103.041 32.7547 102.849 32.872C102.657 32.9893 102.505 33.1467 102.393 33.344C102.281 33.5413 102.225 33.76 102.225 34C102.225 34.2427 102.282 34.4627 102.397 34.66C102.514 34.8547 102.667 35.0107 102.857 35.128C103.049 35.2427 103.258 35.3 103.485 35.3ZM106.386 36V30H107.218V36H106.386ZM110.697 32H111.585L109.393 38H108.509L109.233 36L107.797 32H108.705L109.649 34.86L110.697 32ZM113.383 36.076C113.172 36.0627 112.967 36.02 112.767 35.948C112.567 35.876 112.391 35.7787 112.239 35.656C112.09 35.5307 111.978 35.384 111.903 35.216L112.611 34.912C112.646 34.984 112.706 35.0547 112.791 35.124C112.879 35.1933 112.982 35.2507 113.099 35.296C113.216 35.3387 113.339 35.36 113.467 35.36C113.592 35.36 113.708 35.3427 113.815 35.308C113.924 35.2707 114.014 35.2147 114.083 35.14C114.152 35.0653 114.187 34.976 114.187 34.872C114.187 34.7547 114.147 34.664 114.067 34.6C113.99 34.5333 113.892 34.4827 113.775 34.448C113.658 34.4133 113.54 34.38 113.423 34.348C113.162 34.2893 112.922 34.2093 112.703 34.108C112.487 34.004 112.315 33.872 112.187 33.712C112.059 33.5493 111.995 33.3507 111.995 33.116C111.995 32.86 112.064 32.6387 112.203 32.452C112.342 32.2627 112.523 32.1173 112.747 32.016C112.974 31.9147 113.215 31.864 113.471 31.864C113.791 31.864 114.084 31.932 114.351 32.068C114.618 32.204 114.822 32.3907 114.963 32.628L114.303 33.02C114.263 32.94 114.203 32.868 114.123 32.804C114.043 32.74 113.952 32.6893 113.851 32.652C113.75 32.612 113.644 32.5893 113.535 32.584C113.399 32.5787 113.272 32.5947 113.155 32.632C113.04 32.6667 112.948 32.7227 112.879 32.8C112.81 32.8773 112.775 32.976 112.775 33.096C112.775 33.2133 112.816 33.3013 112.899 33.36C112.982 33.416 113.086 33.4613 113.211 33.496C113.339 33.5307 113.47 33.5693 113.603 33.612C113.84 33.6867 114.063 33.7787 114.271 33.888C114.479 33.9947 114.647 34.1267 114.775 34.284C114.903 34.4413 114.964 34.6333 114.959 34.86C114.959 35.1107 114.883 35.3307 114.731 35.52C114.582 35.7093 114.387 35.8533 114.147 35.952C113.907 36.0507 113.652 36.092 113.383 36.076ZM115.574 32H116.406V36H115.574V32ZM115.998 31.42C115.87 31.42 115.763 31.3787 115.678 31.296C115.592 31.2133 115.55 31.1093 115.55 30.984C115.55 30.8613 115.592 30.7587 115.678 30.676C115.763 30.5907 115.868 30.548 115.994 30.548C116.116 30.548 116.22 30.5907 116.306 30.676C116.391 30.7587 116.434 30.8613 116.434 30.984C116.434 31.1093 116.391 31.2133 116.306 31.296C116.223 31.3787 116.12 31.42 115.998 31.42ZM118.508 36.076C118.297 36.0627 118.092 36.02 117.892 35.948C117.692 35.876 117.516 35.7787 117.364 35.656C117.215 35.5307 117.103 35.384 117.028 35.216L117.736 34.912C117.771 34.984 117.831 35.0547 117.916 35.124C118.004 35.1933 118.107 35.2507 118.224 35.296C118.341 35.3387 118.464 35.36 118.592 35.36C118.717 35.36 118.833 35.3427 118.94 35.308C119.049 35.2707 119.139 35.2147 119.208 35.14C119.277 35.0653 119.312 34.976 119.312 34.872C119.312 34.7547 119.272 34.664 119.192 34.6C119.115 34.5333 119.017 34.4827 118.9 34.448C118.783 34.4133 118.665 34.38 118.548 34.348C118.287 34.2893 118.047 34.2093 117.828 34.108C117.612 34.004 117.44 33.872 117.312 33.712C117.184 33.5493 117.12 33.3507 117.12 33.116C117.12 32.86 117.189 32.6387 117.328 32.452C117.467 32.2627 117.648 32.1173 117.872 32.016C118.099 31.9147 118.34 31.864 118.596 31.864C118.916 31.864 119.209 31.932 119.476 32.068C119.743 32.204 119.947 32.3907 120.088 32.628L119.428 33.02C119.388 32.94 119.328 32.868 119.248 32.804C119.168 32.74 119.077 32.6893 118.976 32.652C118.875 32.612 118.769 32.5893 118.66 32.584C118.524 32.5787 118.397 32.5947 118.28 32.632C118.165 32.6667 118.073 32.7227 118.004 32.8C117.935 32.8773 117.9 32.976 117.9 33.096C117.9 33.2133 117.941 33.3013 118.024 33.36C118.107 33.416 118.211 33.4613 118.336 33.496C118.464 33.5307 118.595 33.5693 118.728 33.612C118.965 33.6867 119.188 33.7787 119.396 33.888C119.604 33.9947 119.772 34.1267 119.9 34.284C120.028 34.4413 120.089 34.6333 120.084 34.86C120.084 35.1107 120.008 35.3307 119.856 35.52C119.707 35.7093 119.512 35.8533 119.272 35.952C119.032 36.0507 118.777 36.092 118.508 36.076Z" fill="black"/>
</svg>
