<svg width="19" height="20" viewBox="0 0 19 20" fill="none" xmlns="http://www.w3.org/2000/svg">
<path d="M2.66667 18.3332H16C16.442 18.3332 16.866 18.1576 17.1785 17.845C17.4911 17.5325 17.6667 17.1085 17.6667 16.6665V3.33317C17.6667 2.89114 17.4911 2.46722 17.1785 2.15466C16.866 1.8421 16.442 1.6665 16 1.6665H6C5.55797 1.6665 5.13405 1.8421 4.82149 2.15466C4.50893 2.46722 4.33333 2.89114 4.33333 3.33317V16.6665C4.33333 17.1085 4.15774 17.5325 3.84518 17.845C3.53262 18.1576 3.10869 18.3332 2.66667 18.3332ZM2.66667 18.3332C2.22464 18.3332 1.80072 18.1576 1.48816 17.845C1.17559 17.5325 1 17.1085 1 16.6665V9.1665C1 8.24984 1.75 7.49984 2.66667 7.49984H4.33333M14.3333 11.6665H7.66667M11.8333 14.9998H7.66667M7.66667 4.99984H14.3333V8.33317H7.66667V4.99984Z" stroke="#09090B" stroke-width="1.5" stroke-linecap="round" stroke-linejoin="round"/>
</svg>
