<svg width="38" height="38" viewBox="0 0 38 38" fill="none" xmlns="http://www.w3.org/2000/svg">
<rect x="0.5" y="0.5" width="37" height="37" rx="18.5" fill="white"/>
<rect x="0.5" y="0.5" width="37" height="37" rx="18.5" stroke="#CCCCCC"/>
<path d="M26.3 21.8C27.1 23.4 28 24 28 24H10C10 24 13 22 13 15C13 11.7 15.7 9 19 9C20 9 20.9 9.2 21.8 9.7M17.3 28C17.4674 28.3044 17.7135 28.5583 18.0125 28.7352C18.3116 28.912 18.6526 29.0053 19 29.0053C19.3475 29.0053 19.6885 28.912 19.9876 28.7352C20.2866 28.5583 20.5327 28.3044 20.7 28M22 15H28M25 12V18" stroke="black" stroke-width="1.5" stroke-linecap="round" stroke-linejoin="round"/>
</svg>
