<svg width="18" height="22" viewBox="0 0 18 22" fill="none" xmlns="http://www.w3.org/2000/svg">
<path d="M9 16H9.01M6.1001 7.99992C6.34008 7.33855 6.80487 6.78257 7.41323 6.42915C8.02159 6.07574 8.73481 5.94738 9.42821 6.06653C10.1216 6.18567 10.7511 6.54472 11.2066 7.08093C11.6621 7.61714 11.9146 8.29638 11.9201 8.99992C11.9201 10.9999 8.9201 11.9999 8.9201 11.9999M12 1H3C2.46957 1 1.96086 1.21071 1.58579 1.58579C1.21071 1.96086 1 2.46957 1 3V19C1 19.5304 1.21071 20.0391 1.58579 20.4142C1.96086 20.7893 2.46957 21 3 21H15C15.5304 21 16.0391 20.7893 16.4142 20.4142C16.7893 20.0391 17 19.5304 17 19V6L12 1Z" stroke="#09090B" stroke-linecap="round" stroke-linejoin="round"/>
</svg>
