<svg width="36" height="36" viewBox="0 0 36 36" fill="none" xmlns="http://www.w3.org/2000/svg">
<rect width="36" height="36" rx="8" fill="#ECF4E9"/>
<path d="M13 19.25H16.75V20.5H13V19.25ZM13 21.75H19.25V23H13V21.75Z" fill="#1E4841"/>
<path d="M24.25 10.5H11.75C11.4186 10.5005 11.101 10.6324 10.8667 10.8667C10.6324 11.101 10.5005 11.4186 10.5 11.75V24.25C10.5005 24.5814 10.6324 24.899 10.8667 25.1333C11.101 25.3676 11.4186 25.4995 11.75 25.5H24.25C24.5814 25.4995 24.899 25.3676 25.1333 25.1333C25.3676 24.899 25.4995 24.5814 25.5 24.25V11.75C25.4995 11.4186 25.3676 11.101 25.1333 10.8667C24.899 10.6324 24.5814 10.5005 24.25 10.5ZM19.25 11.75V14.25H16.75V11.75H19.25ZM11.75 24.25V11.75H15.5V15.5H20.5V11.75H24.25L24.2506 24.25H11.75Z" fill="#1E4841"/>
</svg>
