<svg width="215" height="13" viewBox="0 0 215 13" fill="none" xmlns="http://www.w3.org/2000/svg">
<path d="M5.66836 9.8125V4.36903H4.97467L5.18234 3.62673H6.41066V9.8125H5.66836ZM7.64539 9.8125V3.62673H9.69111C10.1182 3.62673 10.5188 3.70774 10.8929 3.86975C11.267 4.02881 11.5954 4.2512 11.8782 4.53693C12.161 4.8197 12.3819 5.14814 12.541 5.52223C12.703 5.89338 12.784 6.2925 12.784 6.71962C12.784 7.14673 12.703 7.54733 12.541 7.92142C12.3819 8.29257 12.161 8.621 11.8782 8.90673C11.5954 9.18951 11.267 9.4119 10.8929 9.57391C10.5188 9.73297 10.1182 9.8125 9.69111 9.8125H7.64539ZM8.38768 9.07021H9.69111C10.0151 9.07021 10.3185 9.00982 10.6013 8.88905C10.887 8.76534 11.1374 8.59597 11.3524 8.38094C11.5675 8.16591 11.7354 7.917 11.8561 7.63423C11.9798 7.3485 12.0417 7.04363 12.0417 6.71962C12.0417 6.3956 11.9798 6.0922 11.8561 5.80943C11.7354 5.5237 11.566 5.27333 11.348 5.0583C11.133 4.84327 10.8841 4.67537 10.6013 4.5546C10.3185 4.43088 10.0151 4.36903 9.69111 4.36903H8.38768V9.07021Z" fill="#838383"/>
<line x1="25.5636" y1="1.37953e-08" x2="25.5636" y2="12.624" stroke="#838383" stroke-opacity="0.5" stroke-width="0.631201"/>
<path d="M39.021 8.91097C38.6978 8.91097 38.4036 8.8327 38.1385 8.67616C37.876 8.51962 37.6677 8.31006 37.5137 8.04748C37.3596 7.78238 37.2826 7.49203 37.2826 7.17643H37.8128C37.8128 7.39609 37.8671 7.59807 37.9757 7.78238C38.0843 7.96417 38.2294 8.10934 38.4112 8.21791C38.5955 8.32648 38.7988 8.38076 39.021 8.38076C39.2406 8.38076 39.4413 8.32648 39.6231 8.21791C39.8049 8.10934 39.9501 7.96417 40.0587 7.78238C40.1697 7.59807 40.2253 7.39609 40.2253 7.17643C40.2253 6.95425 40.1723 6.75226 40.0662 6.57048C39.9627 6.38617 39.815 6.23973 39.6231 6.13116C39.4338 6.02007 39.2078 5.96452 38.9452 5.96452H37.6576L38.1575 3.51042H40.6381V4.04062H38.5854L38.309 5.43431L38.9263 5.4381C39.2873 5.44315 39.6042 5.52016 39.8769 5.66912C40.1521 5.81808 40.3667 6.02259 40.5207 6.28265C40.6772 6.54018 40.7555 6.8381 40.7555 7.17643C40.7555 7.41376 40.7101 7.6372 40.6192 7.84676C40.5308 8.05632 40.4058 8.24189 40.2442 8.40348C40.0852 8.56254 39.9009 8.68752 39.6913 8.77842C39.4843 8.86678 39.2608 8.91097 39.021 8.91097ZM41.666 8.8125V3.51042H43.4195C43.7856 3.51042 44.129 3.57985 44.4496 3.71871C44.7703 3.85505 45.0518 4.04567 45.2942 4.29058C45.5365 4.53296 45.7259 4.81448 45.8622 5.13513C46.0011 5.45325 46.0705 5.79536 46.0705 6.16146C46.0705 6.52755 46.0011 6.87093 45.8622 7.19158C45.7259 7.5097 45.5365 7.79122 45.2942 8.03612C45.0518 8.2785 44.7703 8.46913 44.4496 8.60799C44.129 8.74433 43.7856 8.8125 43.4195 8.8125H41.666ZM42.1962 8.28229H43.4195C43.7124 8.28229 43.9863 8.22801 44.2413 8.11944C44.4989 8.00835 44.7248 7.8556 44.9192 7.66119C45.1136 7.46678 45.2651 7.24207 45.3737 6.98707C45.4848 6.72954 45.5403 6.45433 45.5403 6.16146C45.5403 5.86858 45.4848 5.59464 45.3737 5.33963C45.2651 5.0821 45.1124 4.85613 44.9154 4.66172C44.721 4.46732 44.4963 4.31583 44.2413 4.20726C43.9863 4.09617 43.7124 4.04062 43.4195 4.04062H42.1962V8.28229Z" fill="#838383"/>
<line x1="58.3859" y1="1.37953e-08" x2="58.3859" y2="12.624" stroke="#838383" stroke-opacity="0.5" stroke-width="0.631201"/>
<path d="M70.9993 8.8125V4.04062H70.4313L70.5827 3.51042H71.5295V8.8125H70.9993ZM72.5873 8.8125L73.6136 3.51042H73.9999L75.4845 7.41123L76.9615 3.51042H77.3478L78.3779 8.8125H77.8364L77.0524 4.7564L75.6511 8.46408H75.3103L73.909 4.7564L73.1251 8.8125H72.5873Z" fill="#838383"/>
<line x1="91.2082" y1="1.37953e-08" x2="91.2082" y2="12.624" stroke="#838383" stroke-opacity="0.5" stroke-width="0.631201"/>
<path d="M103.93 8.91097C103.596 8.91097 103.291 8.82891 103.013 8.6648C102.738 8.49816 102.517 8.27598 102.351 7.99825C102.186 7.72052 102.104 7.41376 102.104 7.07796C102.104 6.88355 102.127 6.71818 102.173 6.58184C102.218 6.44297 102.285 6.28896 102.373 6.1198L103.877 3.51042H104.494L103.392 5.41917C103.614 5.33332 103.838 5.29545 104.062 5.30555C104.287 5.31312 104.502 5.36236 104.706 5.45325C104.911 5.54414 105.092 5.66912 105.252 5.82818C105.411 5.98472 105.536 6.16903 105.626 6.38112C105.72 6.5932 105.767 6.82548 105.767 7.07796C105.767 7.33044 105.719 7.56777 105.623 7.78996C105.527 8.00961 105.394 8.20402 105.225 8.37318C105.058 8.53982 104.864 8.67111 104.642 8.76705C104.42 8.863 104.182 8.91097 103.93 8.91097ZM103.93 8.38076C104.182 8.38076 104.407 8.32016 104.604 8.19897C104.801 8.07526 104.955 7.91367 105.066 7.71421C105.18 7.51475 105.236 7.30141 105.236 7.07417C105.236 6.83684 105.178 6.62097 105.062 6.42656C104.946 6.22963 104.789 6.07309 104.593 5.95695C104.396 5.83828 104.177 5.77895 103.937 5.77895C103.69 5.77895 103.468 5.83955 103.271 5.96074C103.074 6.08193 102.919 6.24099 102.805 6.43792C102.691 6.63233 102.635 6.84442 102.635 7.07417C102.635 7.3216 102.694 7.54379 102.813 7.74072C102.934 7.93766 103.093 8.09419 103.29 8.21033C103.487 8.32395 103.7 8.38076 103.93 8.38076ZM106.445 8.8125L107.471 3.51042H107.858L109.342 7.41123L110.819 3.51042H111.206L112.236 8.8125H111.694L110.91 4.7564L109.509 8.46408H109.168L107.767 4.7564L106.983 8.8125H106.445Z" fill="#838383"/>
<line x1="124.03" y1="1.37953e-08" x2="124.03" y2="12.624" stroke="#838383" stroke-opacity="0.5" stroke-width="0.631201"/>
<path d="M137.613 8.8125V4.14667H137.019L137.197 3.51042H138.25V8.8125H137.613ZM142.557 3.51042H143.307L141.512 6.4152V8.8125H140.876V6.4152L139.081 3.51042H139.831L141.194 5.71835L142.557 3.51042Z" fill="#1E4841"/>
<line x1="156.853" y1="1.37953e-08" x2="156.853" y2="12.624" stroke="#838383" stroke-opacity="0.5" stroke-width="0.631201"/>
<path d="M170.576 8.91097C170.253 8.91097 169.959 8.8327 169.694 8.67616C169.431 8.51962 169.223 8.31006 169.069 8.04748C168.915 7.78238 168.838 7.49203 168.838 7.17643H169.368C169.368 7.39609 169.422 7.59807 169.531 7.78238C169.64 7.96417 169.785 8.10934 169.967 8.21791C170.151 8.32648 170.354 8.38076 170.576 8.38076C170.796 8.38076 170.997 8.32648 171.178 8.21791C171.36 8.10934 171.505 7.96417 171.614 7.78238C171.725 7.59807 171.781 7.39609 171.781 7.17643C171.781 6.95425 171.728 6.75226 171.622 6.57048C171.518 6.38617 171.37 6.23973 171.178 6.13116C170.989 6.02007 170.763 5.96452 170.501 5.96452H169.213L169.713 3.51042H172.193V4.04062H170.141L169.864 5.43431L170.482 5.4381C170.843 5.44315 171.16 5.52016 171.432 5.66912C171.707 5.81808 171.922 6.02259 172.076 6.28265C172.233 6.54018 172.311 6.8381 172.311 7.17643C172.311 7.41376 172.265 7.6372 172.175 7.84676C172.086 8.05632 171.961 8.24189 171.8 8.40348C171.641 8.56254 171.456 8.68752 171.247 8.77842C171.04 8.86678 170.816 8.91097 170.576 8.91097ZM176.471 3.51042H177.096L175.308 6.41141V8.8125H174.778V6.41141L172.994 3.51042H173.619L175.043 5.83197L176.471 3.51042Z" fill="#838383"/>
<line x1="189.677" y1="1.37953e-08" x2="189.677" y2="12.624" stroke="#838383" stroke-opacity="0.5" stroke-width="0.631201"/>
<path d="M198.828 8.8125L199.854 3.51042H200.241L201.725 7.41123L203.202 3.51042H203.588L204.619 8.8125H204.077L203.293 4.7564L201.892 8.46408H201.551L200.15 4.7564L199.366 8.8125H198.828ZM208.339 5.0253H208.87V8.8125H208.339L208.32 8.10808C208.197 8.34794 208.024 8.54235 207.802 8.69131C207.579 8.83775 207.314 8.91097 207.006 8.91097C206.729 8.91097 206.468 8.85921 206.226 8.75569C205.984 8.64965 205.77 8.50447 205.586 8.32016C205.402 8.13585 205.258 7.92251 205.154 7.68013C205.051 7.43775 204.999 7.17769 204.999 6.89996C204.999 6.62728 205.05 6.37102 205.151 6.13116C205.254 5.8913 205.395 5.68048 205.575 5.4987C205.756 5.31691 205.966 5.17552 206.203 5.07453C206.443 4.97101 206.7 4.91926 206.972 4.91926C207.288 4.91926 207.563 4.995 207.798 5.14649C208.033 5.29545 208.219 5.49112 208.358 5.7335L208.339 5.0253ZM206.995 8.39591C207.265 8.39591 207.497 8.33026 207.692 8.19897C207.886 8.06516 208.035 7.8859 208.139 7.66119C208.245 7.43648 208.298 7.18905 208.298 6.9189C208.298 6.64117 208.245 6.39121 208.139 6.16903C208.033 5.94432 207.882 5.76633 207.688 5.63504C207.494 5.50375 207.263 5.4381 206.995 5.4381C206.727 5.4381 206.482 5.50501 206.26 5.63882C206.041 5.77011 205.865 5.94811 205.734 6.17282C205.605 6.39753 205.541 6.64622 205.541 6.9189C205.541 7.1941 205.608 7.44406 205.741 7.66876C205.875 7.89095 206.052 8.06768 206.272 8.19897C206.494 8.33026 206.735 8.39591 206.995 8.39591ZM209.439 8.8125L210.825 6.91132L209.443 5.01393H210.098L211.155 6.45686L212.207 5.01393H212.859L211.48 6.91132L212.866 8.8125H212.211L211.155 7.35821L210.094 8.8125H209.439Z" fill="#838383"/>
<line x1="149.043" y1="11.3156" x2="132.001" y2="11.3156" stroke="#2C2C2C" stroke-width="0.631201"/>
</svg>
